<svg width="2211" height="287" viewBox="0 0 2211 287" fill="none" xmlns="http://www.w3.org/2000/svg">
<path d="M0.109985 49.65C83.86 30.04 169.33 10.29 255 17.85C340.67 25.41 428.15 65.04 471.55 139.3C486.52 164.91 495.86 195.1 490.74 224.32C485.62 253.54 463.49 280.83 434.24 285.77C404.99 290.71 372.32 267.32 372.89 237.66C373.42 210.25 399.9 189.15 426.91 184.45C453.92 179.75 481.35 187.21 508.04 193.47C758.78 252.3 1032.68 204.87 1249.03 65.14C1268.48 52.58 1288.65 24.5 1270.44 10.2C1257.79 0.259981 1239.61 9.81998 1226.62 19.31C1201.35 37.77 1175.46 56.87 1158.74 83.33C1142.02 109.79 1136.36 145.68 1153.13 172.11C1178.55 212.17 1236.58 210.49 1283.52 203.58C1596.69 157.52 1906.65 89.6 2210.4 0.47998" stroke="black" stroke-miterlimit="10"/>
</svg>
