<svg width="876" height="363" viewBox="0 0 876 363" fill="none" xmlns="http://www.w3.org/2000/svg">
<path d="M0.106873 194.713C49.05 206.734 99.2575 216.451 149.563 213.319C247.984 207.197 336.04 153.249 420.402 102.21C504.755 51.1719 595.376 -0.000121931 693.983 0.444775C699.415 0.471468 705.665 1.06763 708.799 5.4988C711.568 9.42279 710.722 14.7882 709.28 19.3707C705.62 31.0003 698.969 41.4553 691.775 51.3054C654.799 101.908 602.383 139.377 547.029 168.82C491.684 198.264 432.823 220.446 375.697 246.268C338.934 262.88 298.253 287.172 293.232 327.177C292.386 333.948 292.795 341.262 296.606 346.93C301.948 354.867 312.303 357.439 321.759 358.925C402.354 371.56 484.419 349.404 560.411 319.747C609.114 300.741 657.247 278.14 696.922 244.106C702.477 239.345 708.024 234.113 710.669 227.298C713.313 220.482 712.174 211.655 706.199 207.428C703.012 205.168 698.987 204.519 695.105 204.038C670.042 200.888 643.589 202.223 621.09 213.702C598.59 225.18 580.97 248.386 581.433 273.62C581.575 281.317 583.525 289.316 588.707 295.02C595.812 302.85 607.209 304.745 617.715 305.955C703.866 315.868 791.79 310.084 875.893 288.978" stroke="black" stroke-miterlimit="10"/>
</svg>
