<svg width="1814" height="265" viewBox="0 0 1814 265" fill="none" xmlns="http://www.w3.org/2000/svg">
<path d="M1 19.9666C61.96 63.7666 141.39 69.9466 216.38 73.2066C374.91 80.1066 533.65 80.7866 692.33 80.3566C732.21 80.2466 772.65 79.9866 811.04 69.2066C822.32 66.0366 834.28 61.2066 839.96 50.9666C848.62 35.3466 837.33 14.7166 821.24 6.94662C805.15 -0.813377 786.34 0.666623 768.55 2.32662C753 3.77662 733.52 8.68662 731.13 24.1266C728.61 40.3966 747.68 50.9066 763.6 55.1166C876.68 85.0366 998.13 57.6466 1112.62 81.6266C1132.89 85.8766 1157.57 98.4366 1154.56 118.927C1151.71 138.297 1127.02 144.257 1112.78 157.687C1088.18 180.887 1100.69 225.577 1128.59 244.687C1156.49 263.787 1192.7 264.377 1226.5 263.427C1423.93 257.907 1619.3 223.767 1813.85 189.707C1871.92 179.537 1934.19 167.207 1974.87 124.537" stroke="black" stroke-miterlimit="10"/>
</svg>
