<svg width="302" height="188" viewBox="0 0 302 188" fill="none" xmlns="http://www.w3.org/2000/svg">
<path d="M14.3146 188H78V124.461L65.4382 111.899V166.236L9.20225 110L0 119.348L56.236 175.584H1.75281L14.3146 188Z" fill="black"/>
<path d="M0 82.5041V0H13.6282V34.306C15.6476 32.3783 18.0317 30.8734 20.6406 29.8797C23.2496 28.886 26.0307 28.4234 28.8208 28.5193C35.6632 28.5193 40.9976 30.4042 44.8617 34.1741C48.7259 37.944 50.6297 43.7873 50.6297 51.7984V82.5041H37.0769V53.5137C37.176 51.8666 36.949 50.2162 36.4088 48.6571C35.8686 47.098 35.0259 45.6609 33.9291 44.4282C32.7769 43.3237 31.408 42.4702 29.909 41.9219C28.41 41.3736 26.8136 41.1423 25.2206 41.2426C23.0479 41.2094 20.8914 41.6222 18.8846 42.4554C16.8777 43.2886 15.063 44.5246 13.5528 46.087V82.5041H0Z" fill="#FF805F"/>
<path d="M106.028 67.6507L109.911 77.2074C104.734 81.593 97.9795 83.7921 89.6481 83.8047C81.0653 83.8047 74.1538 81.2475 68.9136 76.133C66.2846 73.4988 64.2304 70.3481 62.8807 66.8799C61.5311 63.4116 60.9153 59.7012 61.0723 55.9829C60.968 52.3278 61.5927 48.6886 62.9099 45.2776C64.2271 41.8665 66.2103 38.7519 68.744 36.1155C73.8585 30.8251 80.6569 28.1736 89.1391 28.161C95.7498 28.0145 102.149 30.4955 106.933 35.06C109.336 37.3309 111.229 40.0867 112.487 43.1446C113.744 46.2025 114.338 49.4927 114.228 52.7973C114.293 55.2608 114.021 57.7216 113.417 60.1109H75.1528C75.3445 61.9085 75.9035 63.6476 76.7952 65.2203C77.6869 66.7929 78.8922 68.1655 80.3364 69.2529C83.4629 71.4711 87.2304 72.6034 91.0618 72.4762C96.4609 72.6635 101.755 70.9564 106.028 67.6507V67.6507ZM88.5925 39.4896C80.9019 39.4896 76.2712 43.3349 74.7004 51.0255H100.713C100.795 49.5069 100.555 47.9882 100.009 46.5687C99.4633 45.1492 98.624 43.8609 97.546 42.7882C96.3544 41.6612 94.9465 40.7878 93.4075 40.2208C91.8685 39.6537 90.2304 39.405 88.5925 39.4896V39.4896Z" fill="#FF805F"/>
<path d="M125.236 67.9901V0.131958H138.789V62.3352C138.789 68.0655 140.322 70.9306 143.388 70.9306C145.402 70.8237 147.332 70.0924 148.911 68.8383L151.738 79.2055C147.729 82.2875 142.767 83.8681 137.714 83.6728C129.395 83.6728 125.236 78.4452 125.236 67.9901Z" fill="#FF805F"/>
<path d="M202.085 67.6506L205.968 77.2073C200.791 81.5929 194.036 83.792 185.705 83.8046C177.122 83.8046 170.211 81.2474 164.971 76.1329C162.342 73.4987 160.287 70.348 158.938 66.8798C157.588 63.4115 156.972 59.7011 157.129 55.9828C157.025 52.3277 157.65 48.6885 158.967 45.2775C160.284 41.8664 162.267 38.7519 164.801 36.1154C169.903 30.825 176.701 28.1735 185.196 28.161C191.806 28.0186 198.204 30.499 202.99 35.0599C205.393 37.3309 207.286 40.0866 208.544 43.1445C209.801 46.2024 210.395 49.4926 210.285 52.7972C210.35 55.2607 210.078 57.7215 209.474 60.1108H171.191C171.385 61.9099 171.947 63.6499 172.842 65.2226C173.737 66.7954 174.946 68.1672 176.393 69.2528C179.519 71.4736 183.287 72.6061 187.119 72.4761C192.518 72.6634 197.812 70.9563 202.085 67.6506ZM184.725 39.4895C177.034 39.4895 172.397 43.3348 170.814 51.0254H196.864C196.946 49.5052 196.704 47.9849 196.155 46.565C195.606 45.145 194.762 43.8578 193.678 42.7881C192.489 41.6575 191.082 40.7816 189.542 40.2144C188.003 39.6472 186.363 39.4005 184.725 39.4895V39.4895Z" fill="#FF805F"/>
<path d="M221.293 82.5041V29.4617H234.846V34.7772C236.779 32.703 239.137 31.0702 241.759 29.9902C244.381 28.9102 247.205 28.4085 250.038 28.5192C264.59 28.5192 271.86 36.1407 271.847 51.3836V82.5041H258.238V53.7398C258.238 45.4083 254.273 41.2426 246.344 41.2426C244.174 41.255 242.029 41.7113 240.042 42.5833C238.055 43.4553 236.267 44.7246 234.789 46.3131V82.5041H221.293Z" fill="#FF805F"/>
<path d="M283.44 73.6449C283.452 72.5145 283.688 71.3978 284.135 70.3593C284.581 69.3208 285.229 68.381 286.041 67.5942C286.931 66.6803 288.004 65.9644 289.189 65.4934C290.375 65.0225 291.646 64.807 292.921 64.8611C294.089 64.8372 295.247 65.0696 296.315 65.5418C297.384 66.014 298.335 66.7146 299.104 67.5942C300.684 69.2133 301.576 71.3821 301.592 73.6449C301.624 76.0904 300.736 78.4588 299.104 80.2799C298.347 81.177 297.398 81.8933 296.329 82.376C295.259 82.8587 294.094 83.0958 292.921 83.0696C291.637 83.1204 290.357 82.8922 289.169 82.4008C287.981 81.9095 286.914 81.1666 286.041 80.2234C284.353 78.4515 283.42 76.0923 283.44 73.6449V73.6449Z" fill="#FF805F"/>
<path d="M13.6282 0H0.07547V82.5041H13.6282V0Z" fill="#655CD8"/>
</svg>
