<svg width="438" height="122" viewBox="0 0 438 122" fill="none" xmlns="http://www.w3.org/2000/svg">
<path d="M0.0870056 74.8924C48.9449 66.121 83.8047 16.0127 131.58 1.76041C139.217 -0.519964 149.657 -0.359937 152.422 7.75139C154.849 14.8626 149.164 21.9537 143.992 27.0145C124.068 46.5277 104.154 66.041 84.23 85.5642C79.8025 89.9049 75.2492 94.4256 72.8421 100.377C70.4446 106.328 70.8023 114.129 75.2976 118.38C80.8175 123.6 89.2666 121.3 96.1013 118.51C132.962 103.457 167.687 82.2136 198.709 55.7393C222.084 35.786 246.377 11.592 276.036 11.8721C281.759 11.9221 288.304 13.5423 290.972 19.0832C295.119 27.6847 286.902 37.0762 279.333 42.177C271.763 47.2779 262.657 54.5691 264.542 64.0706C265.76 70.1916 271.589 74.1723 277.303 74.7124C283.016 75.2525 288.613 73.0921 293.95 70.8217C341.377 50.6284 387.112 18.0631 437.971 20.0334" stroke="black" stroke-miterlimit="10"/>
</svg>
