<svg width="638" height="425" viewBox="0 0 638 425" fill="none" xmlns="http://www.w3.org/2000/svg">
<g clip-path="url(#clip0_3_232)">
<path d="M0.492615 114.235C12.5877 149.026 50.9587 170.772 89.1095 174.973C127.271 179.175 165.453 169.012 201.938 157.518C303.121 125.658 400.479 82.7253 491.486 29.8291C522.74 11.6635 559.78 -8.40259 593.697 4.70142C617.646 13.9542 632.33 38.2017 636.26 62.5691C642.245 99.7305 625.727 139.443 594.661 162.56C562.442 186.537 519.481 191.759 478.752 194.81C418.8 199.291 357.602 201.111 300.889 220.197C244.166 239.283 191.278 279.495 176.364 335.102C170.84 355.689 172.318 380.816 189.874 393.88C202.011 402.913 219.137 403.753 233.915 399.662C248.693 395.571 261.7 387.198 274.424 378.936L333.066 340.894C348.997 330.561 368.009 319.748 386.32 325.439C405.992 331.551 414.639 355.089 410.269 374.384C405.898 393.68 392.084 409.595 378.71 424.67" stroke="black" stroke-miterlimit="10"/>
</g>
<defs>
<clipPath id="clip0_3_232">
<rect width="638" height="425" fill="white"/>
</clipPath>
</defs>
</svg>
