<svg xmlns="http://www.w3.org/2000/svg" version="1.1">
  <symbol id="arrow" viewBox="0 0 54 54" fill="none" xmlns="http://www.w3.org/2000/svg">
    <path d="M10.2581 53.7505L1.74 45.3314L41.8543 45.3314L42.9438 49.5905L0.551429 7.1981L6.79143 0.859049L49.1838 43.2514L44.9248 42.261L44.9248 2.14667L53.4429 10.6648L53.4429 53.7505L10.2581 53.7505Z" fill="black"/>
  </symbol>

  <symbol id="cross" viewBox="0 0 58 58" fill="none" xmlns="http://www.w3.org/2000/svg">
    <g clip-path="url(#clip0_3_219)">
      <path d="M2.47 2.46997L54.66 54.66" stroke="black" stroke-width="7" stroke-miterlimit="10"/>
      <path d="M2.47 54.66L54.66 2.46997" stroke="black" stroke-width="7" stroke-miterlimit="10"/>
    </g>
  </symbol>

  <symbol id="plus" viewBox="0 0 77 77" fill="none" xmlns="http://www.w3.org/2000/svg">
    <g clip-path="url(#clip0_3_222)">
      <path d="M38.31 73.12C57.535 73.12 73.12 57.535 73.12 38.31C73.12 19.085 57.535 3.5 38.31 3.5C19.085 3.5 3.5 19.085 3.5 38.31C3.5 57.535 19.085 73.12 38.31 73.12Z" fill="#FFF7EA" stroke="black" stroke-width="7" stroke-miterlimit="10"/>
      <path d="M38.31 17.8199V58.7999" stroke="black" stroke-width="7" stroke-miterlimit="10"/>
      <path d="M58.8 38.3101H17.82" stroke="black" stroke-width="7" stroke-miterlimit="10"/>
    </g>
  </symbol>

  <symbol id="sun" viewBox="0 0 68 68" fill="none" xmlns="http://www.w3.org/2000/svg">
    <g clip-path="url(#clip0_3_214)">
      <path d="M9.93524 9.9353L57.9034 57.9035" stroke="black" stroke-width="6.1006" stroke-miterlimit="10"/>
      <path d="M9.93524 57.9035L57.9034 9.9353" stroke="black" stroke-width="6.1006" stroke-miterlimit="10"/>
      <path d="M33.9193 67.83V0" stroke="black" stroke-width="6.1006" stroke-miterlimit="10"/>
      <path d="M0 33.9192H67.83" stroke="black" stroke-width="6.1006" stroke-miterlimit="10"/>
    </g>
  </symbol>

  <symbol id="square" viewBox="0 0 57 57" fill="none" xmlns="http://www.w3.org/2000/svg">
    <g clip-path="url(#clip0_3_226)">
      <path d="M53.42 3.5V53.42H3.5" stroke="black" stroke-width="7" stroke-miterlimit="10"/>
      <path d="M3.5 3.5L53.42 53.42" stroke="black" stroke-width="7" stroke-miterlimit="10"/>
      <path d="M53.42 3.5H3.5V53.42H53.42V3.5Z" stroke="black" stroke-width="7" stroke-miterlimit="10"/>
    </g>
  </symbol>

  <symbol id="instagram" width="57" height="57" viewBox="0 0 57 57" fill="none" xmlns="http://www.w3.org/2000/svg">
    <g clip-path="url(#clip0_4_547)">
      <path d="M41.5305 57.0001C32.8511 57.0001 24.1717 57.0001 15.4923 57.0001C15.3307 56.9694 15.169 56.9262 15.006 56.9109C12.7428 56.7032 10.5855 56.0871 8.63023 54.9441C3.05858 51.688 0.112495 46.8024 0.0442082 40.339C-0.0394083 32.4552 0.0107616 24.57 0.0302721 16.6862C0.0400274 12.5422 1.35699 8.84979 4.101 5.72749C7.49165 1.86923 11.8063 0.00839178 16.9292 0.00560402C24.6247 2.84851e-05 32.3202 0.0125734 40.0157 2.84852e-05C43.4202 -0.00554705 46.5879 0.807087 49.4406 2.68743C52.8842 4.95807 55.2255 8.072 56.339 12.0571C56.6498 13.1722 56.7836 14.3361 56.9996 15.4777C56.9996 24.1602 56.9996 32.8441 56.9996 41.5266C56.9717 41.6493 56.9285 41.7719 56.9187 41.8974C56.739 44.0481 56.1648 46.0902 55.1544 47.9942C52.926 52.1995 49.5382 55.0208 44.956 56.338C43.8425 56.6572 42.6747 56.784 41.5305 57.0001ZM28.4557 52.5466C32.3494 52.5466 36.2432 52.5647 40.1355 52.5341C41.0929 52.5271 42.074 52.4672 43.0036 52.2497C48.7968 50.8963 52.5414 46.1403 52.547 40.1871C52.5526 32.3967 52.5581 24.6076 52.5358 16.8172C52.533 15.8777 52.4648 14.9146 52.2515 14.0044C50.897 8.2086 46.1434 4.46185 40.1927 4.45767C32.4052 4.45209 24.6191 4.44791 16.8316 4.46742C15.9104 4.47021 14.9684 4.53572 14.0723 4.73365C8.37241 5.99512 4.49957 10.7998 4.48145 16.6486C4.45776 24.5505 4.47309 32.451 4.47727 40.3529C4.47867 42.1176 4.78944 43.8293 5.56847 45.4183C7.85956 50.0934 11.6418 52.4686 16.8302 52.5369C20.7044 52.5884 24.5801 52.5466 28.4557 52.5466Z" fill="white"/>
      <path d="M28.4366 43.8614C19.9453 43.7736 13.0581 36.807 13.1598 28.4117C13.263 19.909 20.2324 13.026 28.6177 13.1431C37.1034 13.2616 43.9405 20.1752 43.868 28.565C43.7941 37.0509 36.8359 43.9493 28.4366 43.8614ZM28.5439 17.5951C22.5555 17.5714 17.6347 22.4681 17.611 28.473C17.5873 34.4625 22.4803 39.3857 28.484 39.4108C34.4695 39.4359 39.3931 34.5378 39.4168 28.5329C39.4405 22.5434 34.5448 17.6174 28.5439 17.5951Z" fill="white"/>
      <path d="M46.3138 12.8914C46.3277 14.1153 45.3285 15.1328 44.1049 15.1398C42.8813 15.1467 41.8696 14.1403 41.871 12.9151C41.8724 11.7136 42.8507 10.7156 44.052 10.6947C45.2756 10.6738 46.2999 11.6676 46.3138 12.8914Z" fill="white"/>
    </g>
  </symbol>

  <symbol id="facebook" width="34" height="69" viewBox="0 0 34 69" fill="none" xmlns="http://www.w3.org/2000/svg">
    <g clip-path="url(#clip0_4_544)">
      <path d="M9.80782 68.9944C9.82027 68.7926 9.84338 68.5927 9.84338 68.3909C9.84516 58.525 9.84516 48.6609 9.84516 38.795C9.84516 38.595 9.84516 38.3968 9.84516 38.1338C6.5483 38.1338 3.29767 38.1338 0.00436401 38.1338C0.00436401 34.0188 0.00436401 29.9669 0.00436401 25.8483C3.26033 25.8483 6.50918 25.8483 9.84516 25.8483C9.84516 25.524 9.84338 25.2627 9.84516 25.0033C9.87539 21.409 9.78115 17.8075 9.96608 14.2203C10.1866 9.95041 11.6216 6.1417 14.9487 3.28607C17.5627 1.043 20.6764 0.0250625 24.032 -0.00736738C27.2186 -0.0379956 30.4088 0.232253 33.5972 0.374585C33.7252 0.37999 33.8514 0.434039 34.0026 0.470073C34.0026 4.09682 34.0026 7.70554 34.0026 11.4044C33.7341 11.4044 33.478 11.4007 33.2202 11.4044C30.8942 11.4422 28.5594 11.3737 26.2423 11.5485C23.7475 11.7359 22.2875 13.0691 22.1399 15.595C21.9426 18.9713 22.0919 22.3675 22.0919 25.8284C25.6769 25.8284 29.3027 25.8284 32.9979 25.8284C32.4911 29.956 31.9932 34.0008 31.4899 38.0978C28.3336 38.0978 25.2145 38.0978 22.0421 38.0978C22.0244 38.3662 21.9977 38.5806 21.9977 38.795C21.9959 48.6609 21.9959 58.525 21.9977 68.3909C21.9977 68.5909 22.0332 68.789 22.0528 68.989C17.9717 68.9944 13.8889 68.9944 9.80782 68.9944Z" fill="white"/>
    </g>
  </symbol>

</svg>