<svg xmlns="http://www.w3.org/2000/svg" version="1.1">
  <symbol id="arrow" viewBox="0 0 54 54" fill="none" xmlns="http://www.w3.org/2000/svg">
    <path d="M10.2581 53.7505L1.74 45.3314L41.8543 45.3314L42.9438 49.5905L0.551429 7.1981L6.79143 0.859049L49.1838 43.2514L44.9248 42.261L44.9248 2.14667L53.4429 10.6648L53.4429 53.7505L10.2581 53.7505Z" fill="black"/>
  </symbol>

  <symbol id="cross" viewBox="0 0 58 58" fill="none" xmlns="http://www.w3.org/2000/svg">
    <g clip-path="url(#clip0_3_219)">
      <path d="M2.47 2.46997L54.66 54.66" stroke="black" stroke-width="7" stroke-miterlimit="10"/>
      <path d="M2.47 54.66L54.66 2.46997" stroke="black" stroke-width="7" stroke-miterlimit="10"/>
    </g>
  </symbol>

  <symbol id="plus" viewBox="0 0 77 77" fill="none" xmlns="http://www.w3.org/2000/svg">
    <g clip-path="url(#clip0_3_222)">
      <path d="M38.31 73.12C57.535 73.12 73.12 57.535 73.12 38.31C73.12 19.085 57.535 3.5 38.31 3.5C19.085 3.5 3.5 19.085 3.5 38.31C3.5 57.535 19.085 73.12 38.31 73.12Z" fill="#FFF7EA" stroke="black" stroke-width="7" stroke-miterlimit="10"/>
      <path d="M38.31 17.8199V58.7999" stroke="black" stroke-width="7" stroke-miterlimit="10"/>
      <path d="M58.8 38.3101H17.82" stroke="black" stroke-width="7" stroke-miterlimit="10"/>
    </g>
  </symbol>

  <symbol id="sun" viewBox="0 0 68 68" fill="none" xmlns="http://www.w3.org/2000/svg">
    <g clip-path="url(#clip0_3_214)">
      <path d="M9.93524 9.9353L57.9034 57.9035" stroke="black" stroke-width="6.1006" stroke-miterlimit="10"/>
      <path d="M9.93524 57.9035L57.9034 9.9353" stroke="black" stroke-width="6.1006" stroke-miterlimit="10"/>
      <path d="M33.9193 67.83V0" stroke="black" stroke-width="6.1006" stroke-miterlimit="10"/>
      <path d="M0 33.9192H67.83" stroke="black" stroke-width="6.1006" stroke-miterlimit="10"/>
    </g>
  </symbol>

  <symbol id="square" viewBox="0 0 57 57" fill="none" xmlns="http://www.w3.org/2000/svg">
    <g clip-path="url(#clip0_3_226)">
      <path d="M53.42 3.5V53.42H3.5" stroke="black" stroke-width="7" stroke-miterlimit="10"/>
      <path d="M3.5 3.5L53.42 53.42" stroke="black" stroke-width="7" stroke-miterlimit="10"/>
      <path d="M53.42 3.5H3.5V53.42H53.42V3.5Z" stroke="black" stroke-width="7" stroke-miterlimit="10"/>
    </g>
  </symbol>
</svg>